<svg width="94" height="97" viewBox="0 0 94 97" fill="none" xmlns="http://www.w3.org/2000/svg">
<path d="M26.0695 46.6843C26.0695 53.6898 21.0164 59.4319 14.7574 59.4319C11.3695 59.4319 8.7281 58.0538 7.06287 55.5273V58.9726H0V24.1176H7.00545V37.9562C8.67068 35.4297 11.3121 34.0515 14.7 34.0515C21.0164 34.0515 26.012 39.7363 26.012 46.7417L26.0695 46.6843ZM19.2363 46.6843C19.2363 43.3539 16.48 40.655 13.1496 40.655C9.81912 40.655 7.00545 43.2964 7.00545 46.6843C7.00545 50.0722 9.70427 52.7136 13.1496 52.7136C16.5949 52.7136 19.2363 50.0722 19.2363 46.6843Z" fill="black"/>
<path d="M14.7 12.2312C11.3121 12.2312 8.67068 13.6093 7.00545 16.1358V11.8292H0V37.1522H7.00545V33.7069C8.67068 36.2335 11.3121 37.6116 14.7 37.6116C21.0164 37.6116 26.012 31.8694 26.012 24.8639C26.012 17.8585 20.9589 12.1737 14.7 12.1737V12.2312ZM13.0922 30.9507C9.64685 30.9507 6.94803 28.3667 6.94803 24.9214C6.94803 21.4761 9.64685 18.8921 13.0922 18.8921C16.5375 18.8921 19.1789 21.5909 19.1789 24.9214C19.1789 28.2518 16.4226 30.9507 13.0922 30.9507Z" fill="black"/>
<path d="M52.771 0V24.4042H45.7656V21.1886C44.2726 23.6003 41.9757 24.921 39.1621 24.921C32.9031 24.921 29.1133 20.6718 29.1133 13.7812V0H36.1187V12.8625C36.1187 16.0781 38.0136 18.2027 40.9422 18.2027C43.8707 18.2027 45.7656 16.1355 45.7656 12.8625V0H52.771Z" fill="black"/>
<path d="M55.1829 53.7464C55.1829 60.7518 50.1873 66.494 43.8709 66.494C40.483 66.494 37.8416 65.1159 36.1764 62.5893V66.0346H29.1709V31.1796H36.1764V45.0183C37.8416 42.4917 40.483 41.1136 43.8709 41.1136C50.1873 41.1136 55.1829 46.7983 55.1829 53.8038V53.7464ZM48.3498 53.7464C48.3498 50.4159 45.5935 47.7171 42.2056 47.7171C38.8177 47.7171 36.0615 50.3585 36.0615 53.7464C36.0615 57.1342 38.7603 59.7756 42.2056 59.7756C45.6509 59.7756 48.3498 57.1342 48.3498 53.7464Z" fill="black"/>
<path d="M55.1829 84.0652C55.1829 91.0707 50.1298 96.8128 43.8709 96.8128C40.483 96.8128 37.8416 95.4347 36.1764 92.9082V96.3535H29.1709V61.5559H36.1764V75.3945C37.8416 72.868 40.483 71.4898 43.8709 71.4898C50.1873 71.4898 55.1829 77.1746 55.1829 84.1801V84.0652ZM48.3498 84.0652C48.3498 80.7348 45.5935 78.0359 42.2631 78.0359C38.9326 78.0359 36.1189 80.6773 36.1189 84.0652C36.1189 87.4531 38.8177 90.0945 42.2631 90.0945C45.7084 90.0945 48.3498 87.4531 48.3498 84.0652Z" fill="black"/>
<path d="M65.6329 79.5293H58.6274V18.892H65.6329V79.5293Z" fill="black"/>
<path d="M93.8275 71.6622H76.2564C76.8881 74.9927 79.1849 76.7153 82.5154 76.7153C84.6974 76.7153 86.9943 75.7392 87.8556 74.2462L93.3107 77.5767C91.5306 80.7923 87.4537 82.6872 82.3431 82.6872C75.1654 82.6872 69.5381 77.1173 69.5381 69.8821C69.5381 62.647 75.108 57.3068 82.2283 57.3068C88.8318 57.3068 93.9998 62.4173 93.9998 68.9634C93.9998 69.8247 93.9997 70.7435 93.8275 71.7196V71.6622ZM86.9943 67.1833C86.7072 64.7716 84.4677 62.9341 81.8838 62.9341C78.9553 62.9341 77.0029 64.5419 76.3713 67.1833H86.9943Z" fill="black"/>
</svg>
